<?xml version="1.0" encoding="UTF-8"?>
<svg xmlns="http://www.w3.org/2000/svg" xmlns:xlink="http://www.w3.org/1999/xlink" width="64px" height="60px" viewBox="0 0 64 60" version="1.1">
<g id="surface1">
<path style=" stroke:none;fill-rule:evenodd;fill:rgb(99.607843%,98.431373%,98.823529%);fill-opacity:1;" d="M 4.222656 3.984375 C 13.410156 13.199219 22.597656 22.4375 31.777344 31.703125 C 31.894531 31.761719 32.015625 31.761719 32.132812 31.703125 C 41.316406 22.453125 50.484375 13.210938 59.644531 3.984375 C 59.703125 7.121094 59.703125 10.253906 59.644531 13.386719 C 59.496094 15.234375 58.816406 16.847656 57.601562 18.222656 C 54.015625 21.835938 50.429688 25.449219 46.84375 29.058594 C 46.777344 29.160156 46.792969 29.25 46.890625 29.328125 C 47.582031 29.984375 48.265625 30.65625 48.933594 31.34375 C 49.308594 31.398438 49.515625 31.234375 49.554688 30.851562 C 49.902344 30.785156 50.121094 30.578125 50.222656 30.222656 C 52.546875 28.0625 54.828125 25.824219 57.066406 23.507812 C 57.84375 22.609375 58.300781 21.566406 58.445312 20.375 C 58.828125 19.941406 59.226562 19.523438 59.644531 19.121094 C 60.046875 21.847656 59.421875 24.292969 57.777344 26.460938 C 54.882812 29.378906 51.976562 32.304688 49.066406 35.238281 C 47.042969 33.214844 45.042969 31.1875 43.066406 29.148438 C 47.363281 24.777344 51.671875 20.417969 56 16.074219 C 56.449219 15.457031 56.746094 14.773438 56.890625 14.015625 C 57.011719 12.855469 57.054688 11.691406 57.023438 10.523438 C 56.851562 10.542969 56.703125 10.617188 56.578125 10.746094 C 48.417969 19.042969 40.210938 27.292969 31.957031 35.507812 C 23.632812 27.210938 15.367188 18.898438 7.15625 10.566406 C 7.070312 10.523438 6.980469 10.507812 6.890625 10.523438 C 6.859375 11.691406 6.902344 12.855469 7.023438 14.015625 C 7.164062 14.773438 7.460938 15.457031 7.910156 16.074219 C 12.238281 20.417969 16.550781 24.777344 20.84375 29.148438 C 18.867188 31.1875 16.867188 33.21875 14.84375 35.238281 C 11.941406 32.3125 9.035156 29.386719 6.132812 26.460938 C 4.488281 24.292969 3.863281 21.847656 4.265625 19.121094 C 4.683594 19.523438 5.082031 19.941406 5.464844 20.375 C 5.609375 21.566406 6.066406 22.609375 6.84375 23.507812 C 9.453125 26.136719 12.046875 28.75 14.621094 31.34375 C 14.742188 31.402344 14.859375 31.402344 14.976562 31.34375 C 15.691406 30.625 16.402344 29.910156 17.109375 29.195312 C 13.542969 25.511719 9.945312 21.855469 6.3125 18.222656 C 5.09375 16.847656 4.414062 15.234375 4.265625 13.386719 C 4.222656 10.253906 4.207031 7.121094 4.222656 3.984375 Z M 4.222656 3.984375 "/>
<path style=" stroke:none;fill-rule:evenodd;fill:rgb(99.607843%,98.823529%,98.823529%);fill-opacity:1;" d="M 4.222656 27.625 C 4.664062 28.027344 5.09375 28.445312 5.511719 28.878906 C 5.601562 29.960938 5.988281 30.914062 6.667969 31.746094 C 8.605469 33.703125 10.546875 35.65625 12.488281 37.613281 C 11.882812 38.222656 11.273438 38.835938 10.667969 39.449219 C 9.125 37.894531 7.585938 36.34375 6.042969 34.792969 C 4.496094 32.660156 3.890625 30.273438 4.222656 27.625 Z M 4.222656 27.625 "/>
<path style=" stroke:none;fill-rule:evenodd;fill:rgb(99.607843%,98.823529%,98.823529%);fill-opacity:1;" d="M 59.601562 27.625 C 60.023438 30.261719 59.445312 32.648438 57.867188 34.792969 C 56.324219 36.34375 54.785156 37.894531 53.246094 39.449219 C 52.636719 38.835938 52.03125 38.222656 51.421875 37.613281 C 53.363281 35.65625 55.304688 33.703125 57.246094 31.746094 C 57.890625 30.902344 58.273438 29.949219 58.398438 28.878906 C 58.816406 28.472656 59.21875 28.054688 59.601562 27.625 Z M 59.601562 27.625 "/>
<path style=" stroke:none;fill-rule:evenodd;fill:rgb(99.607843%,98.431373%,98.823529%);fill-opacity:1;" d="M 23.15625 31.566406 C 26.066406 34.367188 28.941406 37.214844 31.777344 40.121094 C 31.894531 40.179688 32.015625 40.179688 32.132812 40.121094 C 34.964844 37.253906 37.808594 34.402344 40.667969 31.566406 C 44.085938 34.96875 47.496094 38.386719 50.890625 41.820312 C 46.144531 46.601562 41.386719 51.394531 36.621094 56.195312 C 36.5625 52.910156 36.5625 49.625 36.621094 46.34375 C 36.816406 45.035156 37.292969 43.839844 38.042969 42.761719 C 39.152344 41.554688 40.292969 40.375 41.464844 39.222656 C 42.144531 39.714844 42.769531 40.296875 43.332031 40.96875 C 42.355469 42 41.363281 43.011719 40.355469 44.015625 C 39.785156 44.71875 39.429688 45.527344 39.289062 46.433594 C 39.246094 47.507812 39.230469 48.582031 39.246094 49.65625 C 39.339844 49.671875 39.425781 49.65625 39.511719 49.613281 C 41.035156 48.074219 42.5625 46.539062 44.089844 45 C 44.132812 44.914062 44.148438 44.824219 44.132812 44.730469 C 44.226562 44.746094 44.316406 44.730469 44.398438 44.6875 C 45.304688 43.773438 46.210938 42.863281 47.109375 41.957031 C 47.171875 41.867188 47.171875 41.777344 47.109375 41.6875 C 45.007812 39.535156 42.871094 37.417969 40.710938 35.328125 C 37.773438 38.210938 34.855469 41.105469 31.957031 44.015625 C 29.066406 41.152344 26.195312 38.269531 23.332031 35.375 C 23.246094 35.3125 23.15625 35.3125 23.066406 35.375 C 20.976562 37.480469 18.886719 39.585938 16.800781 41.6875 C 16.742188 41.777344 16.742188 41.867188 16.800781 41.957031 C 17.699219 42.859375 18.601562 43.769531 19.511719 44.6875 C 19.59375 44.730469 19.683594 44.746094 19.777344 44.730469 C 19.765625 44.824219 19.777344 44.914062 19.820312 45 C 21.347656 46.539062 22.875 48.074219 24.398438 49.613281 C 24.484375 49.65625 24.574219 49.671875 24.667969 49.65625 C 24.679688 48.582031 24.667969 47.507812 24.621094 46.433594 C 24.484375 45.527344 24.128906 44.71875 23.554688 44.015625 C 22.546875 43.011719 21.554688 42 20.578125 40.96875 C 21.140625 40.34375 21.734375 39.746094 22.355469 39.179688 C 23.570312 40.328125 24.742188 41.523438 25.867188 42.761719 C 26.617188 43.839844 27.09375 45.035156 27.289062 46.34375 C 27.347656 49.625 27.347656 52.910156 27.289062 56.195312 C 24.132812 53.015625 20.976562 49.835938 17.820312 46.65625 C 17.738281 46.613281 17.648438 46.597656 17.554688 46.613281 C 17.570312 46.519531 17.554688 46.429688 17.511719 46.34375 C 16.019531 44.839844 14.523438 43.332031 13.023438 41.820312 C 16.417969 38.414062 19.796875 34.996094 23.15625 31.566406 Z M 23.15625 31.566406 "/>
</g>
</svg>
